<svg xmlns="http://www.w3.org/2000/svg" width="1584" height="396" viewBox="0 0 1584 396">
  <defs>
    <radialGradient id="heroGlow" cx="70%" cy="50%" r="50%">
      <stop offset="0%" stop-color="#06b6d4" stop-opacity="0.12"/>
      <stop offset="100%" stop-color="#09090b" stop-opacity="0"/>
    </radialGradient>
    <linearGradient id="lineGrad" x1="0" y1="0" x2="1" y2="0">
      <stop offset="0%" stop-color="#06b6d4" stop-opacity="0"/>
      <stop offset="20%" stop-color="#06b6d4" stop-opacity="1"/>
      <stop offset="80%" stop-color="#06b6d4" stop-opacity="1"/>
      <stop offset="100%" stop-color="#06b6d4" stop-opacity="0"/>
    </linearGradient>
  </defs>

  <!-- Background -->
  <rect width="1584" height="396" fill="#09090b"/>

  <!-- Grid pattern -->
  <line x1="120" y1="0" x2="120" y2="396" stroke="#27272a" stroke-width="0.5" opacity="0.35"/>
  <line x1="180" y1="0" x2="180" y2="396" stroke="#27272a" stroke-width="0.5" opacity="0.35"/>
  <line x1="240" y1="0" x2="240" y2="396" stroke="#27272a" stroke-width="0.5" opacity="0.35"/>
  <line x1="300" y1="0" x2="300" y2="396" stroke="#27272a" stroke-width="0.5" opacity="0.35"/>
  <line x1="360" y1="0" x2="360" y2="396" stroke="#27272a" stroke-width="0.5" opacity="0.35"/>
  <line x1="420" y1="0" x2="420" y2="396" stroke="#27272a" stroke-width="0.5" opacity="0.35"/>
  <line x1="480" y1="0" x2="480" y2="396" stroke="#27272a" stroke-width="0.5" opacity="0.35"/>
  <line x1="540" y1="0" x2="540" y2="396" stroke="#27272a" stroke-width="0.5" opacity="0.35"/>
  <line x1="600" y1="0" x2="600" y2="396" stroke="#27272a" stroke-width="0.5" opacity="0.35"/>
  <line x1="660" y1="0" x2="660" y2="396" stroke="#27272a" stroke-width="0.5" opacity="0.35"/>
  <line x1="720" y1="0" x2="720" y2="396" stroke="#27272a" stroke-width="0.5" opacity="0.35"/>
  <line x1="780" y1="0" x2="780" y2="396" stroke="#27272a" stroke-width="0.5" opacity="0.35"/>
  <line x1="840" y1="0" x2="840" y2="396" stroke="#27272a" stroke-width="0.5" opacity="0.35"/>
  <line x1="900" y1="0" x2="900" y2="396" stroke="#27272a" stroke-width="0.5" opacity="0.35"/>
  <line x1="960" y1="0" x2="960" y2="396" stroke="#27272a" stroke-width="0.5" opacity="0.35"/>
  <line x1="1020" y1="0" x2="1020" y2="396" stroke="#27272a" stroke-width="0.5" opacity="0.35"/>
  <line x1="1080" y1="0" x2="1080" y2="396" stroke="#27272a" stroke-width="0.5" opacity="0.35"/>
  <line x1="1140" y1="0" x2="1140" y2="396" stroke="#27272a" stroke-width="0.5" opacity="0.35"/>
  <line x1="1200" y1="0" x2="1200" y2="396" stroke="#27272a" stroke-width="0.5" opacity="0.35"/>
  <line x1="1260" y1="0" x2="1260" y2="396" stroke="#27272a" stroke-width="0.5" opacity="0.35"/>
  <line x1="1320" y1="0" x2="1320" y2="396" stroke="#27272a" stroke-width="0.5" opacity="0.35"/>
  <line x1="1380" y1="0" x2="1380" y2="396" stroke="#27272a" stroke-width="0.5" opacity="0.35"/>
  <line x1="1440" y1="0" x2="1440" y2="396" stroke="#27272a" stroke-width="0.5" opacity="0.35"/>
  <line x1="1500" y1="0" x2="1500" y2="396" stroke="#27272a" stroke-width="0.5" opacity="0.35"/>

  <line x1="0" y1="60" x2="1584" y2="60" stroke="#27272a" stroke-width="0.5" opacity="0.35"/>
  <line x1="0" y1="120" x2="1584" y2="120" stroke="#27272a" stroke-width="0.5" opacity="0.35"/>
  <line x1="0" y1="180" x2="1584" y2="180" stroke="#27272a" stroke-width="0.5" opacity="0.35"/>
  <line x1="0" y1="240" x2="1584" y2="240" stroke="#27272a" stroke-width="0.5" opacity="0.35"/>
  <line x1="0" y1="300" x2="1584" y2="300" stroke="#27272a" stroke-width="0.5" opacity="0.35"/>
  <line x1="0" y1="360" x2="1584" y2="360" stroke="#27272a" stroke-width="0.5" opacity="0.35"/>

  <!-- Radial glow - centered on right side -->
  <rect width="1584" height="396" fill="url(#heroGlow)"/>

  <!-- === RIGHT SIDE: Main content === -->

  <!-- Accent tag line decoration -->
  <line x1="880" y1="148" x2="910" y2="148" stroke="#06b6d4" stroke-width="1.5"/>
  <text x="920" y="152" font-family="'JetBrains Mono', 'Courier New', monospace"
        font-size="11" font-weight="500" fill="#06b6d4" letter-spacing="2">ASSURANCE READINESS</text>

  <!-- Main heading -->
  <text x="880" y="210" font-family="'JetBrains Mono', 'Courier New', monospace"
        font-size="52" font-weight="700" fill="#fafafa" letter-spacing="-1">ascio</text>

  <!-- Subtle separator -->
  <line x1="880" y1="232" x2="1140" y2="232" stroke="url(#lineGrad)" stroke-width="1"/>

  <!-- Tagline -->
  <text x="880" y="260" font-family="'Inter', 'Helvetica Neue', Arial, sans-serif"
        font-size="16" font-weight="500" fill="#a1a1aa" letter-spacing="0.3">Technology Governance, Inspection &amp; Assessment Readiness</text>

  <!-- Website URL bottom-right -->
  <text x="1420" y="360" text-anchor="end" font-family="'JetBrains Mono', 'Courier New', monospace"
        font-size="11" font-weight="400" fill="#71717a" letter-spacing="0.5">ascio.ca</text>

  <!-- Bottom bar accent -->
  <rect x="0" y="392" width="1584" height="4" fill="#06b6d4" opacity="0.6"/>
</svg>
